<?xml version="1.0" encoding="UTF-8"?>
<svg xmlns="http://www.w3.org/2000/svg" xmlns:xlink="http://www.w3.org/1999/xlink" width="384pt" height="384pt" viewBox="0 0 384 384" version="1.1">
<g id="surface3891879">
<path style=" stroke:none;fill-rule:nonzero;fill:rgb(80%,80%,80%);fill-opacity:1;" d="M 264 48 C 217.679688 48 192 81.441406 192 81.441406 C 192 81.441406 166.320312 48 120 48 C 71.390625 48 32 87.390625 32 136 C 32 224 192 336 192 336 C 192 336 352 224 352 136 C 352 87.390625 312.609375 48 264 48 Z M 192 296.289062 C 136.273438 253.519531 64 182.496094 64 136 C 64 105.121094 89.121094 80 120 80 C 158.433594 80 192 126.511719 192 126.511719 C 192 126.511719 226.238281 80 264 80 C 294.878906 80 320 105.121094 320 136 C 320 182.496094 247.726562 253.519531 192 296.289062 Z M 192 296.289062 "/>
</g>
</svg>
