<?xml version="1.0" encoding="UTF-8"?>
<svg xmlns="http://www.w3.org/2000/svg" xmlns:xlink="http://www.w3.org/1999/xlink" width="384pt" height="384pt" viewBox="0 0 384 384" version="1.1">
<g id="surface3947179">
<path style=" stroke:none;fill-rule:nonzero;fill:rgb(58.431373%,64.705882%,65.098039%);fill-opacity:1;" d="M 64 80 L 0 160 L 48 160 L 48 256 C 48 282.464844 69.535156 304 96 304 L 281.59375 304 L 256 272 L 96 272 C 87.183594 272 80 264.832031 80 256 L 80 160 L 128 160 Z M 102.40625 80 L 128 112 L 288 112 C 296.816406 112 304 119.167969 304 128 L 304 224 L 256 224 L 320 304 L 384 224 L 336 224 L 336 128 C 336 101.535156 314.464844 80 288 80 Z M 102.40625 80 "/>
</g>
</svg>
